<?xml version="1.0" encoding="UTF-8" standalone="no"?>
<svg
   xmlns:dc="http://purl.org/dc/elements/1.1/"
   xmlns:cc="http://creativecommons.org/ns#"
   xmlns:rdf="http://www.w3.org/1999/02/22-rdf-syntax-ns#"
   xmlns:svg="http://www.w3.org/2000/svg"
   xmlns="http://www.w3.org/2000/svg"
   xmlns:sodipodi="http://sodipodi.sourceforge.net/DTD/sodipodi-0.dtd"
   xmlns:inkscape="http://www.inkscape.org/namespaces/inkscape"
   width="990.96753"
   height="460.33212"
   id="svg3004"
   version="1.1"
   inkscape:version="0.48.2 r9819"
   sodipodi:docname="numpad.svg"
   inkscape:export-filename="/home/phil/src/atreus/preview.png"
   inkscape:export-xdpi="90"
   inkscape:export-ydpi="90">
  <metadata
     id="metadata4705">
    <rdf:RDF>
      <cc:Work
         rdf:about="">
        <dc:format>image/svg+xml</dc:format>
        <dc:type
           rdf:resource="http://purl.org/dc/dcmitype/StillImage" />
        <dc:title />
      </cc:Work>
    </rdf:RDF>
  </metadata>
  <sodipodi:namedview
     pagecolor="#ffffff"
     bordercolor="#666666"
     borderopacity="1"
     objecttolerance="10"
     gridtolerance="10"
     guidetolerance="10"
     inkscape:pageopacity="0"
     inkscape:pageshadow="2"
     inkscape:window-width="1680"
     inkscape:window-height="1002"
     id="namedview4703"
     showgrid="false"
     inkscape:document-units="mm"
     units="mm"
     inkscape:zoom="1.124532"
     inkscape:cx="471.33307"
     inkscape:cy="284.13995"
     inkscape:window-x="0"
     inkscape:window-y="0"
     inkscape:window-maximized="1"
     inkscape:current-layer="g5832"
     showguides="true"
     inkscape:guide-bbox="true"
     fit-margin-top="0"
     fit-margin-left="0"
     fit-margin-right="0"
     fit-margin-bottom="0" />
  <desc
     id="desc3006">/home/phil/ErgoDOX Case Layer 3 Plate - Left.dxf - scale = 1.000000</desc>
  <defs
     id="defs3008">
    <marker
       refY="0"
       refX="0"
       style="overflow:visible"
       id="DistanceX"
       orient="auto">
      <path
         style="stroke:#000000;stroke-width:0.5"
         d="M 3,-3 -3,3 M 0,-5 0,5"
         id="path3011"
         inkscape:connector-curvature="0" />
    </marker>
    <pattern
       height="8"
       width="8"
       patternUnits="userSpaceOnUse"
       y="0"
       x="0"
       id="Hatch">
      <path
         linecap="square"
         stroke="#000000"
         stroke-width="0.25"
         d="M8 4 l-4,4"
         id="path3014" />
      <path
         linecap="square"
         stroke="#000000"
         stroke-width="0.25"
         d="M6 2 l-4,4"
         id="path3016" />
      <path
         linecap="square"
         stroke="#000000"
         stroke-width="0.25"
         d="M4 0 l-4,4"
         id="path3018" />
    </pattern>
    <symbol
       id="*Model_Space" />
    <symbol
       id="*Paper_Space" />
    <symbol
       id="*Paper_Space0" />
  </defs>
  <g
     inkscape:label="All together"
     inkscape:groupmode="layer"
     id="g3023"
     transform="translate(83.803983,-618.94697)"
     style="display:none">
    <g
       id="g3317"
       transform="matrix(0.98480775,0.17364818,-0.17364818,0.98480775,155.10068,-53.3287)">
      <path
         inkscape:connector-curvature="0"
         d="m 393.74701,754.32463 0,-3.474 m 2.88001,3.474 -2.88001,0 m 2.88001,12.402 0,-12.402 m -2.88001,12.402 2.88001,0 m -2.88001,17.748 0,-17.748 m 2.88001,17.748 -2.88001,0 m 2.88001,12.402 0,-12.402 m -2.88001,12.402 2.88001,0 m -2.88001,3.474 0,-3.474 m -49.50013,3.474 49.50013,0 m -49.50013,-3.474 0,3.474 m -2.88001,-3.474 2.88001,0 m -2.88001,-12.402 0,12.402 m 2.88001,-12.402 -2.88001,0 m 2.88001,-17.748 0,17.748 m -2.88001,-17.748 2.88001,0 m -2.88001,-12.402 0,12.402 m 2.88001,-12.402 -2.88001,0 m 2.88001,-3.474 0,3.474 m 49.50013,-3.474 -49.50013,0"
         style="fill:none;stroke:#ff0000;stroke-width:1.00000131"
         id="path3223" />
      <path
         inkscape:connector-curvature="0"
         d="m 191.24646,934.96987 0,-3.474 m 2.88001,3.474 -2.88001,0 m 2.88001,12.402 0,-12.402 m -2.88001,12.402 2.88001,0 m -2.88001,17.748 0,-17.748 m 2.88001,17.748 -2.88001,0 m 2.88001,12.402 0,-12.402 m -2.88001,12.402 2.88001,0 m -2.88001,3.474 0,-3.474 m -49.50013,3.474 49.50013,0 m -49.50013,-3.474 0,3.474 m -2.88001,-3.474 2.88001,0 m -2.88001,-12.402 0,12.402 m 2.88001,-12.402 -2.88001,0 m 2.88001,-17.748 0,17.748 m -2.88001,-17.748 2.88001,0 m -2.88001,-12.402 0,12.402 m 2.88001,-12.402 -2.88001,0 m 2.88001,-3.474 0,3.474 m 49.50013,-3.474 -49.50013,0"
         style="fill:none;stroke:#ff0000;stroke-width:1.00000131"
         id="path3583" />
      <path
         inkscape:connector-curvature="0"
         d="m 123.74628,743.91896 0,-3.474 m 2.88001,3.474 -2.88001,0 m 2.88001,12.402 0,-12.402 m -2.88001,12.402 2.88001,0 m -2.88001,17.748 0,-17.748 m 2.88001,17.748 -2.88001,0 m 2.88001,12.402 0,-12.402 m -2.88001,12.402 2.88001,0 m -2.88001,3.474 0,-3.474 m -49.50013,3.474 49.50013,0 m -49.50013,-3.474 0,3.474 m -2.880008,-3.474 2.880008,0 m -2.880008,-12.402 0,12.402 m 2.880008,-12.402 -2.880008,0 m 2.880008,-17.748 0,17.748 m -2.880008,-17.748 2.880008,0 m -2.880008,-12.402 0,12.402 m 2.880008,-12.402 -2.880008,0 m 2.880008,-3.474 0,3.474 m 49.50013,-3.474 -49.50013,0"
         style="fill:none;stroke:#ff0000;stroke-width:1.00000131"
         id="path3623" />
      <path
         inkscape:connector-curvature="0"
         d="m 258.74665,714.75333 0,-3.474 m 2.88,3.474 -2.88,0 m 2.88,12.402 0,-12.402 m -2.88,12.402 2.88,0 m -2.88,17.748 0,-17.748 m 2.88,17.748 -2.88,0 m 2.88,12.402 0,-12.402 m -2.88,12.402 2.88,0 m -2.88,3.474 0,-3.474 m -49.50014,3.474 49.50014,0 m -49.50014,-3.474 0,3.474 m -2.88001,-3.474 2.88001,0 m -2.88001,-12.402 0,12.402 m 2.88001,-12.402 -2.88001,0 m 2.88001,-17.748 0,17.748 m -2.88001,-17.748 2.88001,0 m -2.88001,-12.402 0,12.402 m 2.88001,-12.402 -2.88001,0 m 2.88001,-3.474 0,3.474 m 49.50014,-3.474 -49.50014,0"
         style="fill:none;stroke:#ff0000;stroke-width:1.00000131"
         id="path3663" />
      <path
         inkscape:connector-curvature="0"
         d="m 326.24683,732.46987 0,-3.474 m 2.88001,3.474 -2.88001,0 m 2.88001,12.402 0,-12.402 m -2.88001,12.402 2.88001,0 m -2.88001,17.748 0,-17.748 m 2.88001,17.748 -2.88001,0 m 2.88001,12.402 0,-12.402 m -2.88001,12.402 2.88001,0 m -2.88001,3.474 0,-3.474 m -49.50014,3.474 49.50014,0 m -49.50014,-3.474 0,3.474 m -2.88,-3.474 2.88,0 m -2.88,-12.402 0,12.402 m 2.88,-12.402 -2.88,0 m 2.88,-17.748 0,17.748 m -2.88,-17.748 2.88,0 m -2.88,-12.402 0,12.402 m 2.88,-12.402 -2.88,0 m 2.88,-3.474 0,3.474 m 49.50014,-3.474 -49.50014,0"
         style="fill:none;stroke:#ff0000;stroke-width:1.00000131"
         id="path3703" />
      <path
         inkscape:connector-curvature="0"
         d="m 123.74628,811.41896 0,-3.474 m 2.88001,3.474 -2.88001,0 m 2.88001,12.402 0,-12.402 m -2.88001,12.402 2.88001,0 m -2.88001,17.748 0,-17.748 m 2.88001,17.748 -2.88001,0 m 2.88001,12.402 0,-12.402 m -2.88001,12.402 2.88001,0 m -2.88001,3.474 0,-3.474 m -49.50013,3.474 49.50013,0 m -49.50013,-3.474 0,3.474 m -2.880008,-3.474 2.880008,0 m -2.880008,-12.402 0,12.402 m 2.880008,-12.402 -2.880008,0 m 2.880008,-17.748 0,17.748 m -2.880008,-17.748 2.880008,0 m -2.880008,-12.402 0,12.402 m 2.880008,-12.402 -2.880008,0 m 2.880008,-3.474 0,3.474 m 49.50013,-3.474 -49.50013,0"
         style="fill:none;stroke:#ff0000;stroke-width:1.00000131"
         id="path3743" />
      <path
         inkscape:connector-curvature="0"
         d="m 191.24646,799.96987 0,-3.474 m 2.88001,3.474 -2.88001,0 m 2.88001,12.402 0,-12.402 m -2.88001,12.402 2.88001,0 m -2.88001,17.748 0,-17.748 m 2.88001,17.748 -2.88001,0 m 2.88001,12.402 0,-12.402 m -2.88001,12.402 2.88001,0 m -2.88001,3.474 0,-3.474 m -49.50013,3.474 49.50013,0 m -49.50013,-3.474 0,3.474 m -2.88001,-3.474 2.88001,0 m -2.88001,-12.402 0,12.402 m 2.88001,-12.402 -2.88001,0 m 2.88001,-17.748 0,17.748 m -2.88001,-17.748 2.88001,0 m -2.88001,-12.402 0,12.402 m 2.88001,-12.402 -2.88001,0 m 2.88001,-3.474 0,3.474 m 49.50013,-3.474 -49.50013,0"
         style="fill:none;stroke:#ff0000;stroke-width:1.00000131"
         id="path3783" />
      <path
         inkscape:connector-curvature="0"
         d="m 258.74665,782.25333 0,-3.474 m 2.88,3.474 -2.88,0 m 2.88,12.402 0,-12.402 m -2.88,12.402 2.88,0 m -2.88,17.748 0,-17.748 m 2.88,17.748 -2.88,0 m 2.88,12.402 0,-12.402 m -2.88,12.402 2.88,0 m -2.88,3.474 0,-3.474 m -49.50014,3.474 49.50014,0 m -49.50014,-3.474 0,3.474 m -2.88001,-3.474 2.88001,0 m -2.88001,-12.402 0,12.402 m 2.88001,-12.402 -2.88001,0 m 2.88001,-17.748 0,17.748 m -2.88001,-17.748 2.88001,0 m -2.88001,-12.402 0,12.402 m 2.88001,-12.402 -2.88001,0 m 2.88001,-3.474 0,3.474 m 49.50014,-3.474 -49.50014,0"
         style="fill:none;stroke:#ff0000;stroke-width:1.00000131"
         id="path3823" />
      <path
         inkscape:connector-curvature="0"
         d="m 326.24683,799.96987 0,-3.474 m 2.88001,3.474 -2.88001,0 m 2.88001,12.402 0,-12.402 m -2.88001,12.402 2.88001,0 m -2.88001,17.748 0,-17.748 m 2.88001,17.748 -2.88001,0 m 2.88001,12.402 0,-12.402 m -2.88001,12.402 2.88001,0 m -2.88001,3.474 0,-3.474 m -49.50014,3.474 49.50014,0 m -49.50014,-3.474 0,3.474 m -2.88,-3.474 2.88,0 m -2.88,-12.402 0,12.402 m 2.88,-12.402 -2.88,0 m 2.88,-17.748 0,17.748 m -2.88,-17.748 2.88,0 m -2.88,-12.402 0,12.402 m 2.88,-12.402 -2.88,0 m 2.88,-3.474 0,3.474 m 49.50014,-3.474 -49.50014,0"
         style="fill:none;stroke:#ff0000;stroke-width:1.00000131"
         id="path3863" />
      <path
         inkscape:connector-curvature="0"
         d="m 393.74701,821.82463 0,-3.474 m 2.88001,3.474 -2.88001,0 m 2.88001,12.402 0,-12.402 m -2.88001,12.402 2.88001,0 m -2.88001,17.748 0,-17.748 m 2.88001,17.748 -2.88001,0 m 2.88001,12.402 0,-12.402 m -2.88001,12.402 2.88001,0 m -2.88001,3.474 0,-3.474 m -49.50013,3.474 49.50013,0 m -49.50013,-3.474 0,3.474 m -2.88001,-3.474 2.88001,0 m -2.88001,-12.402 0,12.402 m 2.88001,-12.402 -2.88001,0 m 2.88001,-17.748 0,17.748 m -2.88001,-17.748 2.88001,0 m -2.88001,-12.402 0,12.402 m 2.88001,-12.402 -2.88001,0 m 2.88001,-3.474 0,3.474 m 49.50013,-3.474 -49.50013,0"
         style="fill:none;stroke:#ff0000;stroke-width:1.00000131"
         id="path3903" />
      <path
         inkscape:connector-curvature="0"
         d="m 123.74628,878.91896 0,-3.474 m 2.88001,3.474 -2.88001,0 m 2.88001,12.402 0,-12.402 m -2.88001,12.402 2.88001,0 m -2.88001,17.748 0,-17.748 m 2.88001,17.748 -2.88001,0 m 2.88001,12.402 0,-12.402 m -2.88001,12.402 2.88001,0 m -2.88001,3.474 0,-3.474 m -49.50013,3.474 49.50013,0 m -49.50013,-3.474 0,3.474 m -2.880008,-3.474 2.880008,0 m -2.880008,-12.402 0,12.402 m 2.880008,-12.402 -2.880008,0 m 2.880008,-17.748 0,17.748 m -2.880008,-17.748 2.880008,0 m -2.880008,-12.402 0,12.402 m 2.880008,-12.402 -2.880008,0 m 2.880008,-3.474 0,3.474 m 49.50013,-3.474 -49.50013,0"
         style="fill:none;stroke:#ff0000;stroke-width:1.00000131"
         id="path3943" />
      <path
         inkscape:connector-curvature="0"
         d="m 191.24646,867.46987 0,-3.474 m 2.88001,3.474 -2.88001,0 m 2.88001,12.402 0,-12.402 m -2.88001,12.402 2.88001,0 m -2.88001,17.748 0,-17.748 m 2.88001,17.748 -2.88001,0 m 2.88001,12.402 0,-12.402 m -2.88001,12.402 2.88001,0 m -2.88001,3.474 0,-3.474 m -49.50013,3.474 49.50013,0 m -49.50013,-3.474 0,3.474 m -2.88001,-3.474 2.88001,0 m -2.88001,-12.402 0,12.402 m 2.88001,-12.402 -2.88001,0 m 2.88001,-17.748 0,17.748 m -2.88001,-17.748 2.88001,0 m -2.88001,-12.402 0,12.402 m 2.88001,-12.402 -2.88001,0 m 2.88001,-3.474 0,3.474 m 49.50013,-3.474 -49.50013,0"
         style="fill:none;stroke:#ff0000;stroke-width:1.00000131"
         id="path3983" />
      <path
         inkscape:connector-curvature="0"
         d="m 258.74665,849.75333 0,-3.474 m 2.88,3.474 -2.88,0 m 2.88,12.402 0,-12.402 m -2.88,12.402 2.88,0 m -2.88,17.748 0,-17.748 m 2.88,17.748 -2.88,0 m 2.88,12.402 0,-12.402 m -2.88,12.402 2.88,0 m -2.88,3.474 0,-3.474 m -49.50014,3.474 49.50014,0 m -49.50014,-3.474 0,3.474 m -2.88001,-3.474 2.88001,0 m -2.88001,-12.402 0,12.402 m 2.88001,-12.402 -2.88001,0 m 2.88001,-17.748 0,17.748 m -2.88001,-17.748 2.88001,0 m -2.88001,-12.402 0,12.402 m 2.88001,-12.402 -2.88001,0 m 2.88001,-3.474 0,3.474 m 49.50014,-3.474 -49.50014,0"
         style="fill:none;stroke:#ff0000;stroke-width:1.00000131"
         id="path4023" />
      <path
         inkscape:connector-curvature="0"
         d="m 326.24683,867.46987 0,-3.474 m 2.88001,3.474 -2.88001,0 m 2.88001,12.402 0,-12.402 m -2.88001,12.402 2.88001,0 m -2.88001,17.748 0,-17.748 m 2.88001,17.748 -2.88001,0 m 2.88001,12.402 0,-12.402 m -2.88001,12.402 2.88001,0 m -2.88001,3.474 0,-3.474 m -49.50014,3.474 49.50014,0 m -49.50014,-3.474 0,3.474 m -2.88,-3.474 2.88,0 m -2.88,-12.402 0,12.402 m 2.88,-12.402 -2.88,0 m 2.88,-17.748 0,17.748 m -2.88,-17.748 2.88,0 m -2.88,-12.402 0,12.402 m 2.88,-12.402 -2.88,0 m 2.88,-3.474 0,3.474 m 49.50014,-3.474 -49.50014,0"
         style="fill:none;stroke:#ff0000;stroke-width:1.00000131"
         id="path4063" />
      <path
         inkscape:connector-curvature="0"
         d="m 393.74701,889.32463 0,-3.474 m 2.88001,3.474 -2.88001,0 m 2.88001,12.402 0,-12.402 m -2.88001,12.402 2.88001,0 m -2.88001,17.748 0,-17.748 m 2.88001,17.748 -2.88001,0 m 2.88001,12.402 0,-12.402 m -2.88001,12.402 2.88001,0 m -2.88001,3.474 0,-3.474 m -49.50013,3.474 49.50013,0 m -49.50013,-3.474 0,3.474 m -2.88001,-3.474 2.88001,0 m -2.88001,-12.402 0,12.402 m 2.88001,-12.402 -2.88001,0 m 2.88001,-17.748 0,17.748 m -2.88001,-17.748 2.88001,0 m -2.88001,-12.402 0,12.402 m 2.88001,-12.402 -2.88001,0 m 2.88001,-3.474 0,3.474 m 49.50013,-3.474 -49.50013,0"
         style="fill:none;stroke:#ff0000;stroke-width:1.00000131"
         id="path4103" />
      <path
         inkscape:connector-curvature="0"
         d="m 123.74628,946.41896 0,-3.474 m 2.88001,3.474 -2.88001,0 m 2.88001,12.402 0,-12.402 m -2.88001,12.402 2.88001,0 m -2.88001,17.748 0,-17.748 m 2.88001,17.748 -2.88001,0 m 2.88001,12.402 0,-12.402 m -2.88001,12.402 2.88001,0 m -2.88001,3.474 0,-3.474 m -49.50013,3.474 49.50013,0 m -49.50013,-3.474 0,3.474 m -2.880008,-3.474 2.880008,0 m -2.880008,-12.402 0,12.402 m 2.880008,-12.402 -2.880008,0 m 2.880008,-17.748 0,17.748 m -2.880008,-17.748 2.880008,0 m -2.880008,-12.402 0,12.402 m 2.880008,-12.402 -2.880008,0 m 2.880008,-3.474 0,3.474 m 49.50013,-3.474 -49.50013,0"
         style="fill:none;stroke:#ff0000;stroke-width:1.00000131"
         id="path4143" />
      <path
         inkscape:connector-curvature="0"
         d="m 258.74665,917.25333 0,-3.474 m 2.88,3.474 -2.88,0 m 2.88,12.402 0,-12.402 m -2.88,12.402 2.88,0 m -2.88,17.748 0,-17.748 m 2.88,17.748 -2.88,0 m 2.88,12.402 0,-12.402 m -2.88,12.402 2.88,0 m -2.88,3.474 0,-3.474 m -49.50014,3.474 49.50014,0 m -49.50014,-3.474 0,3.474 m -2.88001,-3.474 2.88001,0 m -2.88001,-12.402 0,12.402 m 2.88001,-12.402 -2.88001,0 m 2.88001,-17.748 0,17.748 m -2.88001,-17.748 2.88001,0 m -2.88001,-12.402 0,12.402 m 2.88001,-12.402 -2.88001,0 m 2.88001,-3.474 0,3.474 m 49.50014,-3.474 -49.50014,0"
         style="fill:none;stroke:#ff0000;stroke-width:1.00000131"
         id="path4183" />
      <path
         inkscape:connector-curvature="0"
         d="m 326.24683,934.96987 0,-3.474 m 2.88001,3.474 -2.88001,0 m 2.88001,12.402 0,-12.402 m -2.88001,12.402 2.88001,0 m -2.88001,17.748 0,-17.748 m 2.88001,17.748 -2.88001,0 m 2.88001,12.402 0,-12.402 m -2.88001,12.402 2.88001,0 m -2.88001,3.474 0,-3.474 m -49.50014,3.474 49.50014,0 m -49.50014,-3.474 0,3.474 m -2.88,-3.474 2.88,0 m -2.88,-12.402 0,12.402 m 2.88,-12.402 -2.88,0 m 2.88,-17.748 0,17.748 m -2.88,-17.748 2.88,0 m -2.88,-12.402 0,12.402 m 2.88,-12.402 -2.88,0 m 2.88,-3.474 0,3.474 m 49.50014,-3.474 -49.50014,0"
         style="fill:none;stroke:#ff0000;stroke-width:1.00000131"
         id="path4223" />
      <path
         inkscape:connector-curvature="0"
         d="m 191.24646,732.46987 0,-3.474 m 2.88001,3.474 -2.88001,0 m 2.88001,12.402 0,-12.402 m -2.88001,12.402 2.88001,0 m -2.88001,17.748 0,-17.748 m 2.88001,17.748 -2.88001,0 m 2.88001,12.402 0,-12.402 m -2.88001,12.402 2.88001,0 m -2.88001,3.474 0,-3.474 m -49.50013,3.474 49.50013,0 m -49.50013,-3.474 0,3.474 m -2.88001,-3.474 2.88001,0 m -2.88001,-12.402 0,12.402 m 2.88001,-12.402 -2.88001,0 m 2.88001,-17.748 0,17.748 m -2.88001,-17.748 2.88001,0 m -2.88001,-12.402 0,12.402 m 2.88001,-12.402 -2.88001,0 m 2.88001,-3.474 0,3.474 m 49.50013,-3.474 -49.50013,0"
         style="fill:none;stroke:#ff0000;stroke-width:1.00000131"
         id="path4343" />
      <path
         inkscape:connector-curvature="0"
         id="path5501"
         style="fill:none;stroke:#ff0000;stroke-width:1.00000131"
         d="m 394.48378,952.6864 0,-3.474 m 2.88001,3.474 -2.88001,0 m 2.88001,12.402 0,-12.402 m -2.88001,12.402 2.88001,0 m -2.88001,17.748 0,-17.748 m 2.88001,17.748 -2.88001,0 m 2.88001,12.402 0,-12.402 m -2.88001,12.402 2.88001,0 m -2.88001,3.474 0,-3.474 m -49.50013,3.474 49.50013,0 m -49.50013,-3.474 0,3.474 m -2.88001,-3.474 2.88001,0 m -2.88001,-12.402 0,12.402 m 2.88001,-12.402 -2.88001,0 m 2.88001,-17.748 0,17.748 m -2.88001,-17.748 2.88001,0 m -2.88001,-12.402 0,12.402 m 2.88001,-12.402 -2.88001,0 m 2.88001,-3.474 0,3.474 m 49.50013,-3.474 -49.50013,0" />
    </g>
    <path
       style="fill:none;stroke:#ff0000;stroke-width:1.22030044;stroke-miterlimit:4;stroke-opacity:1"
       d="m 60.452094,645.49182 800.578346,0 c 13.51828,0 23.08336,20.68759 24.80315,46.25518 l 17.10642,254.31572 c 1.71979,25.56759 -322.48578,87.97258 -336.00406,87.97258 l -212.59842,0 c -13.51828,0 -337.723816,-62.40497 -336.004027,-87.97258 L 35.439889,691.747 c 1.719788,-25.5676 11.493925,-46.25518 25.012205,-46.25518 z"
       id="rect6039"
       inkscape:connector-curvature="0"
       sodipodi:nodetypes="sssssssss" />
    <path
       sodipodi:type="arc"
       style="fill:none;stroke:#ff0000;stroke-width:2.71440148;stroke-miterlimit:4;stroke-opacity:1;stroke-dasharray:none"
       id="path3402"
       sodipodi:cx="205.06096"
       sodipodi:cy="1105.1703"
       sodipodi:rx="14.142136"
       sodipodi:ry="14.142136"
       d="m 219.20309,1105.1703 c 0,7.8105 -6.33165,14.1421 -14.14213,14.1421 -7.81049,0 -14.14214,-6.3316 -14.14214,-14.1421 0,-7.8105 6.33165,-14.1421 14.14214,-14.1421 7.81048,0 14.14213,6.3316 14.14213,14.1421 z"
       transform="matrix(0.38063606,0,0,0.38063606,335.32633,239.57427)" />
    <path
       transform="matrix(0.38063606,0,0,0.38063606,-19.004383,246.66088)"
       d="m 219.20309,1105.1703 c 0,7.8105 -6.33165,14.1421 -14.14213,14.1421 -7.81049,0 -14.14214,-6.3316 -14.14214,-14.1421 0,-7.8105 6.33165,-14.1421 14.14214,-14.1421 7.81048,0 14.14213,6.3316 14.14213,14.1421 z"
       sodipodi:ry="14.142136"
       sodipodi:rx="14.142136"
       sodipodi:cy="1105.1703"
       sodipodi:cx="205.06096"
       id="path4178"
       style="fill:none;stroke:#ff0000;stroke-width:2.71440148;stroke-miterlimit:4;stroke-opacity:1;stroke-dasharray:none"
       sodipodi:type="arc" />
    <path
       transform="matrix(0.38063606,0,0,0.38063606,430.99562,239.57427)"
       d="m 219.20309,1105.1703 c 0,7.8105 -6.33165,14.1421 -14.14213,14.1421 -7.81049,0 -14.14214,-6.3316 -14.14214,-14.1421 0,-7.8105 6.33165,-14.1421 14.14214,-14.1421 7.81048,0 14.14213,6.3316 14.14213,14.1421 z"
       sodipodi:ry="14.142136"
       sodipodi:rx="14.142136"
       sodipodi:cy="1105.1703"
       sodipodi:cx="205.06096"
       id="path4180"
       style="fill:none;stroke:#ff0000;stroke-width:2.71440148;stroke-miterlimit:4;stroke-opacity:1;stroke-dasharray:none"
       sodipodi:type="arc" />
    <path
       sodipodi:type="arc"
       style="fill:none;stroke:#ff0000;stroke-width:2.71440148;stroke-miterlimit:4;stroke-opacity:1;stroke-dasharray:none"
       id="path4182"
       sodipodi:cx="205.06096"
       sodipodi:cy="1105.1703"
       sodipodi:rx="14.142136"
       sodipodi:ry="14.142136"
       d="m 219.20309,1105.1703 c 0,7.8105 -6.33165,14.1421 -14.14213,14.1421 -7.81049,0 -14.14214,-6.3316 -14.14214,-14.1421 0,-7.8105 6.33165,-14.1421 14.14214,-14.1421 7.81048,0 14.14213,6.3316 14.14213,14.1421 z"
       transform="matrix(0.38063606,0,0,0.38063606,636.50743,569.10175)" />
    <path
       transform="matrix(0.40309815,0,0,0.3796237,781.05221,247.76554)"
       d="m 219.20309,1105.1703 c 0,7.8105 -6.33165,14.1421 -14.14213,14.1421 -7.81049,0 -14.14214,-6.3316 -14.14214,-14.1421 0,-7.8105 6.33165,-14.1421 14.14214,-14.1421 7.81048,0 14.14213,6.3316 14.14213,14.1421 z"
       sodipodi:ry="14.142136"
       sodipodi:rx="14.142136"
       sodipodi:cy="1105.1703"
       sodipodi:cx="205.06096"
       id="path4184"
       style="fill:none;stroke:#ff0000;stroke-width:2.71440148;stroke-miterlimit:4;stroke-opacity:1;stroke-dasharray:none"
       sodipodi:type="arc" />
    <path
       sodipodi:type="arc"
       style="fill:none;stroke:#ff0000;stroke-width:2.71440148;stroke-miterlimit:4;stroke-opacity:1;stroke-dasharray:none"
       id="path4186"
       sodipodi:cx="205.06096"
       sodipodi:cy="1105.1703"
       sodipodi:rx="14.142136"
       sodipodi:ry="14.142136"
       d="m 219.20309,1105.1703 c 0,7.8105 -6.33165,14.1421 -14.14213,14.1421 -7.81049,0 -14.14214,-6.3316 -14.14214,-14.1421 0,-7.8105 6.33165,-14.1421 14.14214,-14.1421 7.81048,0 14.14213,6.3316 14.14213,14.1421 z"
       transform="matrix(0.38063606,0,0,0.38063606,140.44444,568.90332)" />
    <g
       transform="matrix(-0.98480775,0.17364818,0.17364818,0.98480775,768.79497,-54.076345)"
       id="g5584">
      <path
         id="path5586"
         style="fill:none;stroke:#ff0000;stroke-width:1.00000131"
         d="m 393.74701,754.32463 0,-3.474 m 2.88001,3.474 -2.88001,0 m 2.88001,12.402 0,-12.402 m -2.88001,12.402 2.88001,0 m -2.88001,17.748 0,-17.748 m 2.88001,17.748 -2.88001,0 m 2.88001,12.402 0,-12.402 m -2.88001,12.402 2.88001,0 m -2.88001,3.474 0,-3.474 m -49.50013,3.474 49.50013,0 m -49.50013,-3.474 0,3.474 m -2.88001,-3.474 2.88001,0 m -2.88001,-12.402 0,12.402 m 2.88001,-12.402 -2.88001,0 m 2.88001,-17.748 0,17.748 m -2.88001,-17.748 2.88001,0 m -2.88001,-12.402 0,12.402 m 2.88001,-12.402 -2.88001,0 m 2.88001,-3.474 0,3.474 m 49.50013,-3.474 -49.50013,0"
         inkscape:connector-curvature="0" />
      <path
         id="path5588"
         style="fill:none;stroke:#ff0000;stroke-width:1.00000131"
         d="m 191.24646,934.96987 0,-3.474 m 2.88001,3.474 -2.88001,0 m 2.88001,12.402 0,-12.402 m -2.88001,12.402 2.88001,0 m -2.88001,17.748 0,-17.748 m 2.88001,17.748 -2.88001,0 m 2.88001,12.402 0,-12.402 m -2.88001,12.402 2.88001,0 m -2.88001,3.474 0,-3.474 m -49.50013,3.474 49.50013,0 m -49.50013,-3.474 0,3.474 m -2.88001,-3.474 2.88001,0 m -2.88001,-12.402 0,12.402 m 2.88001,-12.402 -2.88001,0 m 2.88001,-17.748 0,17.748 m -2.88001,-17.748 2.88001,0 m -2.88001,-12.402 0,12.402 m 2.88001,-12.402 -2.88001,0 m 2.88001,-3.474 0,3.474 m 49.50013,-3.474 -49.50013,0"
         inkscape:connector-curvature="0" />
      <path
         id="path5590"
         style="fill:none;stroke:#ff0000;stroke-width:1.00000131"
         d="m 123.74628,743.91896 0,-3.474 m 2.88001,3.474 -2.88001,0 m 2.88001,12.402 0,-12.402 m -2.88001,12.402 2.88001,0 m -2.88001,17.748 0,-17.748 m 2.88001,17.748 -2.88001,0 m 2.88001,12.402 0,-12.402 m -2.88001,12.402 2.88001,0 m -2.88001,3.474 0,-3.474 m -49.50013,3.474 49.50013,0 m -49.50013,-3.474 0,3.474 m -2.880008,-3.474 2.880008,0 m -2.880008,-12.402 0,12.402 m 2.880008,-12.402 -2.880008,0 m 2.880008,-17.748 0,17.748 m -2.880008,-17.748 2.880008,0 m -2.880008,-12.402 0,12.402 m 2.880008,-12.402 -2.880008,0 m 2.880008,-3.474 0,3.474 m 49.50013,-3.474 -49.50013,0"
         inkscape:connector-curvature="0" />
      <path
         id="path5592"
         style="fill:none;stroke:#ff0000;stroke-width:1.00000131"
         d="m 258.74665,714.75333 0,-3.474 m 2.88,3.474 -2.88,0 m 2.88,12.402 0,-12.402 m -2.88,12.402 2.88,0 m -2.88,17.748 0,-17.748 m 2.88,17.748 -2.88,0 m 2.88,12.402 0,-12.402 m -2.88,12.402 2.88,0 m -2.88,3.474 0,-3.474 m -49.50014,3.474 49.50014,0 m -49.50014,-3.474 0,3.474 m -2.88001,-3.474 2.88001,0 m -2.88001,-12.402 0,12.402 m 2.88001,-12.402 -2.88001,0 m 2.88001,-17.748 0,17.748 m -2.88001,-17.748 2.88001,0 m -2.88001,-12.402 0,12.402 m 2.88001,-12.402 -2.88001,0 m 2.88001,-3.474 0,3.474 m 49.50014,-3.474 -49.50014,0"
         inkscape:connector-curvature="0" />
      <path
         id="path5594"
         style="fill:none;stroke:#ff0000;stroke-width:1.00000131"
         d="m 326.24683,732.46987 0,-3.474 m 2.88001,3.474 -2.88001,0 m 2.88001,12.402 0,-12.402 m -2.88001,12.402 2.88001,0 m -2.88001,17.748 0,-17.748 m 2.88001,17.748 -2.88001,0 m 2.88001,12.402 0,-12.402 m -2.88001,12.402 2.88001,0 m -2.88001,3.474 0,-3.474 m -49.50014,3.474 49.50014,0 m -49.50014,-3.474 0,3.474 m -2.88,-3.474 2.88,0 m -2.88,-12.402 0,12.402 m 2.88,-12.402 -2.88,0 m 2.88,-17.748 0,17.748 m -2.88,-17.748 2.88,0 m -2.88,-12.402 0,12.402 m 2.88,-12.402 -2.88,0 m 2.88,-3.474 0,3.474 m 49.50014,-3.474 -49.50014,0"
         inkscape:connector-curvature="0" />
      <path
         id="path5596"
         style="fill:none;stroke:#ff0000;stroke-width:1.00000131"
         d="m 123.74628,811.41896 0,-3.474 m 2.88001,3.474 -2.88001,0 m 2.88001,12.402 0,-12.402 m -2.88001,12.402 2.88001,0 m -2.88001,17.748 0,-17.748 m 2.88001,17.748 -2.88001,0 m 2.88001,12.402 0,-12.402 m -2.88001,12.402 2.88001,0 m -2.88001,3.474 0,-3.474 m -49.50013,3.474 49.50013,0 m -49.50013,-3.474 0,3.474 m -2.880008,-3.474 2.880008,0 m -2.880008,-12.402 0,12.402 m 2.880008,-12.402 -2.880008,0 m 2.880008,-17.748 0,17.748 m -2.880008,-17.748 2.880008,0 m -2.880008,-12.402 0,12.402 m 2.880008,-12.402 -2.880008,0 m 2.880008,-3.474 0,3.474 m 49.50013,-3.474 -49.50013,0"
         inkscape:connector-curvature="0" />
      <path
         id="path5598"
         style="fill:none;stroke:#ff0000;stroke-width:1.00000131"
         d="m 191.24646,799.96987 0,-3.474 m 2.88001,3.474 -2.88001,0 m 2.88001,12.402 0,-12.402 m -2.88001,12.402 2.88001,0 m -2.88001,17.748 0,-17.748 m 2.88001,17.748 -2.88001,0 m 2.88001,12.402 0,-12.402 m -2.88001,12.402 2.88001,0 m -2.88001,3.474 0,-3.474 m -49.50013,3.474 49.50013,0 m -49.50013,-3.474 0,3.474 m -2.88001,-3.474 2.88001,0 m -2.88001,-12.402 0,12.402 m 2.88001,-12.402 -2.88001,0 m 2.88001,-17.748 0,17.748 m -2.88001,-17.748 2.88001,0 m -2.88001,-12.402 0,12.402 m 2.88001,-12.402 -2.88001,0 m 2.88001,-3.474 0,3.474 m 49.50013,-3.474 -49.50013,0"
         inkscape:connector-curvature="0" />
      <path
         id="path5600"
         style="fill:none;stroke:#ff0000;stroke-width:1.00000131"
         d="m 258.74665,782.25333 0,-3.474 m 2.88,3.474 -2.88,0 m 2.88,12.402 0,-12.402 m -2.88,12.402 2.88,0 m -2.88,17.748 0,-17.748 m 2.88,17.748 -2.88,0 m 2.88,12.402 0,-12.402 m -2.88,12.402 2.88,0 m -2.88,3.474 0,-3.474 m -49.50014,3.474 49.50014,0 m -49.50014,-3.474 0,3.474 m -2.88001,-3.474 2.88001,0 m -2.88001,-12.402 0,12.402 m 2.88001,-12.402 -2.88001,0 m 2.88001,-17.748 0,17.748 m -2.88001,-17.748 2.88001,0 m -2.88001,-12.402 0,12.402 m 2.88001,-12.402 -2.88001,0 m 2.88001,-3.474 0,3.474 m 49.50014,-3.474 -49.50014,0"
         inkscape:connector-curvature="0" />
      <path
         id="path5602"
         style="fill:none;stroke:#ff0000;stroke-width:1.00000131"
         d="m 326.24683,799.96987 0,-3.474 m 2.88001,3.474 -2.88001,0 m 2.88001,12.402 0,-12.402 m -2.88001,12.402 2.88001,0 m -2.88001,17.748 0,-17.748 m 2.88001,17.748 -2.88001,0 m 2.88001,12.402 0,-12.402 m -2.88001,12.402 2.88001,0 m -2.88001,3.474 0,-3.474 m -49.50014,3.474 49.50014,0 m -49.50014,-3.474 0,3.474 m -2.88,-3.474 2.88,0 m -2.88,-12.402 0,12.402 m 2.88,-12.402 -2.88,0 m 2.88,-17.748 0,17.748 m -2.88,-17.748 2.88,0 m -2.88,-12.402 0,12.402 m 2.88,-12.402 -2.88,0 m 2.88,-3.474 0,3.474 m 49.50014,-3.474 -49.50014,0"
         inkscape:connector-curvature="0" />
      <path
         id="path5604"
         style="fill:none;stroke:#ff0000;stroke-width:1.00000131"
         d="m 393.74701,821.82463 0,-3.474 m 2.88001,3.474 -2.88001,0 m 2.88001,12.402 0,-12.402 m -2.88001,12.402 2.88001,0 m -2.88001,17.748 0,-17.748 m 2.88001,17.748 -2.88001,0 m 2.88001,12.402 0,-12.402 m -2.88001,12.402 2.88001,0 m -2.88001,3.474 0,-3.474 m -49.50013,3.474 49.50013,0 m -49.50013,-3.474 0,3.474 m -2.88001,-3.474 2.88001,0 m -2.88001,-12.402 0,12.402 m 2.88001,-12.402 -2.88001,0 m 2.88001,-17.748 0,17.748 m -2.88001,-17.748 2.88001,0 m -2.88001,-12.402 0,12.402 m 2.88001,-12.402 -2.88001,0 m 2.88001,-3.474 0,3.474 m 49.50013,-3.474 -49.50013,0"
         inkscape:connector-curvature="0" />
      <path
         id="path5606"
         style="fill:none;stroke:#ff0000;stroke-width:1.00000131"
         d="m 123.74628,878.91896 0,-3.474 m 2.88001,3.474 -2.88001,0 m 2.88001,12.402 0,-12.402 m -2.88001,12.402 2.88001,0 m -2.88001,17.748 0,-17.748 m 2.88001,17.748 -2.88001,0 m 2.88001,12.402 0,-12.402 m -2.88001,12.402 2.88001,0 m -2.88001,3.474 0,-3.474 m -49.50013,3.474 49.50013,0 m -49.50013,-3.474 0,3.474 m -2.880008,-3.474 2.880008,0 m -2.880008,-12.402 0,12.402 m 2.880008,-12.402 -2.880008,0 m 2.880008,-17.748 0,17.748 m -2.880008,-17.748 2.880008,0 m -2.880008,-12.402 0,12.402 m 2.880008,-12.402 -2.880008,0 m 2.880008,-3.474 0,3.474 m 49.50013,-3.474 -49.50013,0"
         inkscape:connector-curvature="0" />
      <path
         id="path5608"
         style="fill:none;stroke:#ff0000;stroke-width:1.00000131"
         d="m 191.24646,867.46987 0,-3.474 m 2.88001,3.474 -2.88001,0 m 2.88001,12.402 0,-12.402 m -2.88001,12.402 2.88001,0 m -2.88001,17.748 0,-17.748 m 2.88001,17.748 -2.88001,0 m 2.88001,12.402 0,-12.402 m -2.88001,12.402 2.88001,0 m -2.88001,3.474 0,-3.474 m -49.50013,3.474 49.50013,0 m -49.50013,-3.474 0,3.474 m -2.88001,-3.474 2.88001,0 m -2.88001,-12.402 0,12.402 m 2.88001,-12.402 -2.88001,0 m 2.88001,-17.748 0,17.748 m -2.88001,-17.748 2.88001,0 m -2.88001,-12.402 0,12.402 m 2.88001,-12.402 -2.88001,0 m 2.88001,-3.474 0,3.474 m 49.50013,-3.474 -49.50013,0"
         inkscape:connector-curvature="0" />
      <path
         id="path5610"
         style="fill:none;stroke:#ff0000;stroke-width:1.00000131"
         d="m 258.74665,849.75333 0,-3.474 m 2.88,3.474 -2.88,0 m 2.88,12.402 0,-12.402 m -2.88,12.402 2.88,0 m -2.88,17.748 0,-17.748 m 2.88,17.748 -2.88,0 m 2.88,12.402 0,-12.402 m -2.88,12.402 2.88,0 m -2.88,3.474 0,-3.474 m -49.50014,3.474 49.50014,0 m -49.50014,-3.474 0,3.474 m -2.88001,-3.474 2.88001,0 m -2.88001,-12.402 0,12.402 m 2.88001,-12.402 -2.88001,0 m 2.88001,-17.748 0,17.748 m -2.88001,-17.748 2.88001,0 m -2.88001,-12.402 0,12.402 m 2.88001,-12.402 -2.88001,0 m 2.88001,-3.474 0,3.474 m 49.50014,-3.474 -49.50014,0"
         inkscape:connector-curvature="0" />
      <path
         id="path5612"
         style="fill:none;stroke:#ff0000;stroke-width:1.00000131"
         d="m 326.24683,867.46987 0,-3.474 m 2.88001,3.474 -2.88001,0 m 2.88001,12.402 0,-12.402 m -2.88001,12.402 2.88001,0 m -2.88001,17.748 0,-17.748 m 2.88001,17.748 -2.88001,0 m 2.88001,12.402 0,-12.402 m -2.88001,12.402 2.88001,0 m -2.88001,3.474 0,-3.474 m -49.50014,3.474 49.50014,0 m -49.50014,-3.474 0,3.474 m -2.88,-3.474 2.88,0 m -2.88,-12.402 0,12.402 m 2.88,-12.402 -2.88,0 m 2.88,-17.748 0,17.748 m -2.88,-17.748 2.88,0 m -2.88,-12.402 0,12.402 m 2.88,-12.402 -2.88,0 m 2.88,-3.474 0,3.474 m 49.50014,-3.474 -49.50014,0"
         inkscape:connector-curvature="0" />
      <path
         id="path5614"
         style="fill:none;stroke:#ff0000;stroke-width:1.00000131"
         d="m 393.74701,889.32463 0,-3.474 m 2.88001,3.474 -2.88001,0 m 2.88001,12.402 0,-12.402 m -2.88001,12.402 2.88001,0 m -2.88001,17.748 0,-17.748 m 2.88001,17.748 -2.88001,0 m 2.88001,12.402 0,-12.402 m -2.88001,12.402 2.88001,0 m -2.88001,3.474 0,-3.474 m -49.50013,3.474 49.50013,0 m -49.50013,-3.474 0,3.474 m -2.88001,-3.474 2.88001,0 m -2.88001,-12.402 0,12.402 m 2.88001,-12.402 -2.88001,0 m 2.88001,-17.748 0,17.748 m -2.88001,-17.748 2.88001,0 m -2.88001,-12.402 0,12.402 m 2.88001,-12.402 -2.88001,0 m 2.88001,-3.474 0,3.474 m 49.50013,-3.474 -49.50013,0"
         inkscape:connector-curvature="0" />
      <path
         id="path5616"
         style="fill:none;stroke:#ff0000;stroke-width:1.00000131"
         d="m 123.74628,946.41896 0,-3.474 m 2.88001,3.474 -2.88001,0 m 2.88001,12.402 0,-12.402 m -2.88001,12.402 2.88001,0 m -2.88001,17.748 0,-17.748 m 2.88001,17.748 -2.88001,0 m 2.88001,12.402 0,-12.402 m -2.88001,12.402 2.88001,0 m -2.88001,3.474 0,-3.474 m -49.50013,3.474 49.50013,0 m -49.50013,-3.474 0,3.474 m -2.880008,-3.474 2.880008,0 m -2.880008,-12.402 0,12.402 m 2.880008,-12.402 -2.880008,0 m 2.880008,-17.748 0,17.748 m -2.880008,-17.748 2.880008,0 m -2.880008,-12.402 0,12.402 m 2.880008,-12.402 -2.880008,0 m 2.880008,-3.474 0,3.474 m 49.50013,-3.474 -49.50013,0"
         inkscape:connector-curvature="0" />
      <path
         id="path5618"
         style="fill:none;stroke:#ff0000;stroke-width:1.00000131"
         d="m 258.74665,917.25333 0,-3.474 m 2.88,3.474 -2.88,0 m 2.88,12.402 0,-12.402 m -2.88,12.402 2.88,0 m -2.88,17.748 0,-17.748 m 2.88,17.748 -2.88,0 m 2.88,12.402 0,-12.402 m -2.88,12.402 2.88,0 m -2.88,3.474 0,-3.474 m -49.50014,3.474 49.50014,0 m -49.50014,-3.474 0,3.474 m -2.88001,-3.474 2.88001,0 m -2.88001,-12.402 0,12.402 m 2.88001,-12.402 -2.88001,0 m 2.88001,-17.748 0,17.748 m -2.88001,-17.748 2.88001,0 m -2.88001,-12.402 0,12.402 m 2.88001,-12.402 -2.88001,0 m 2.88001,-3.474 0,3.474 m 49.50014,-3.474 -49.50014,0"
         inkscape:connector-curvature="0" />
      <path
         id="path5620"
         style="fill:none;stroke:#ff0000;stroke-width:1.00000131"
         d="m 326.24683,934.96987 0,-3.474 m 2.88001,3.474 -2.88001,0 m 2.88001,12.402 0,-12.402 m -2.88001,12.402 2.88001,0 m -2.88001,17.748 0,-17.748 m 2.88001,17.748 -2.88001,0 m 2.88001,12.402 0,-12.402 m -2.88001,12.402 2.88001,0 m -2.88001,3.474 0,-3.474 m -49.50014,3.474 49.50014,0 m -49.50014,-3.474 0,3.474 m -2.88,-3.474 2.88,0 m -2.88,-12.402 0,12.402 m 2.88,-12.402 -2.88,0 m 2.88,-17.748 0,17.748 m -2.88,-17.748 2.88,0 m -2.88,-12.402 0,12.402 m 2.88,-12.402 -2.88,0 m 2.88,-3.474 0,3.474 m 49.50014,-3.474 -49.50014,0"
         inkscape:connector-curvature="0" />
      <path
         id="path5622"
         style="fill:none;stroke:#ff0000;stroke-width:1.00000131"
         d="m 191.24646,732.46987 0,-3.474 m 2.88001,3.474 -2.88001,0 m 2.88001,12.402 0,-12.402 m -2.88001,12.402 2.88001,0 m -2.88001,17.748 0,-17.748 m 2.88001,17.748 -2.88001,0 m 2.88001,12.402 0,-12.402 m -2.88001,12.402 2.88001,0 m -2.88001,3.474 0,-3.474 m -49.50013,3.474 49.50013,0 m -49.50013,-3.474 0,3.474 m -2.88001,-3.474 2.88001,0 m -2.88001,-12.402 0,12.402 m 2.88001,-12.402 -2.88001,0 m 2.88001,-17.748 0,17.748 m -2.88001,-17.748 2.88001,0 m -2.88001,-12.402 0,12.402 m 2.88001,-12.402 -2.88001,0 m 2.88001,-3.474 0,3.474 m 49.50013,-3.474 -49.50013,0"
         inkscape:connector-curvature="0" />
      <path
         d="m 394.48378,952.6864 0,-3.474 m 2.88001,3.474 -2.88001,0 m 2.88001,12.402 0,-12.402 m -2.88001,12.402 2.88001,0 m -2.88001,17.748 0,-17.748 m 2.88001,17.748 -2.88001,0 m 2.88001,12.402 0,-12.402 m -2.88001,12.402 2.88001,0 m -2.88001,3.474 0,-3.474 m -49.50013,3.474 49.50013,0 m -49.50013,-3.474 0,3.474 m -2.88001,-3.474 2.88001,0 m -2.88001,-12.402 0,12.402 m 2.88001,-12.402 -2.88001,0 m 2.88001,-17.748 0,17.748 m -2.88001,-17.748 2.88001,0 m -2.88001,-12.402 0,12.402 m 2.88001,-12.402 -2.88001,0 m 2.88001,-3.474 0,3.474 m 49.50013,-3.474 -49.50013,0"
         style="fill:none;stroke:#ff0000;stroke-width:1.00000131"
         id="path5624"
         inkscape:connector-curvature="0" />
    </g>
    <path
       sodipodi:nodetypes="sssssssss"
       inkscape:connector-curvature="0"
       id="path5626"
       d="m 76.130373,680.13734 768.999087,0 c 12.43777,0 14.19685,16.98175 15.89416,37.92142 l 17.188,212.04778 c 1.69731,20.93969 -307.34112,70.87686 -319.7789,70.87686 l -195.60564,0 c -12.43777,0 -321.527989,-49.94164 -319.778859,-70.87686 L 60.764732,718.05876 c 1.749127,-20.9352 2.927864,-37.92142 15.365641,-37.92142 z"
       style="fill:none;stroke:#ff0000;stroke-width:1.05983841;stroke-miterlimit:4;stroke-opacity:1" />
    <path
       style="fill:none;stroke:#ff0000;stroke-width:1px;stroke-linecap:butt;stroke-linejoin:miter;stroke-opacity:1;display:inline"
       d="m 463.61024,1006.341 87.36404,0.2851 57.15009,-9.9242 62.21069,-29.95767 80.94101,-13.41191 69.15722,0.0391 49.58498,-9.13724 8.6385,-11.18364 -43.25459,-253.60413 -150.14452,-6.34632 -48.94575,7.29369 -136.27537,65.12292 16.83225,135.95609 -53.25855,17.45608 -2.98032,0 -53.25863,-17.45608 16.8323,-135.95609 -136.2754,-65.12292 -48.94574,-7.29369 -150.14447,6.34632 -43.25459,253.60413 8.638497,11.18364 49.584983,9.13724 69.15721,-0.0391 80.94097,13.41191 62.21067,29.95767 57.15007,9.9242 87.36413,-0.2851 z"
       id="path4456"
       inkscape:connector-curvature="0"
       sodipodi:nodetypes="ccccccccccccccccccccccccccccc" />
    <g
       transform="translate(0,-1.2e-4)"
       id="g4442"
       style="font-size:32px;font-style:normal;font-variant:normal;font-weight:normal;font-stretch:normal;line-height:125%;letter-spacing:0px;word-spacing:0px;fill:none;stroke:#ff0000;stroke-width:0.99921262;stroke-miterlimit:4;stroke-opacity:1;display:inline;font-family:Anonymous Pro for Powerline;-inkscape-font-specification:Anonymous Pro for Powerline">
      <path
         sodipodi:nodetypes="ccccccc"
         inkscape:connector-curvature="0"
         id="path4444"
         d="m 426.28766,709.04321 -2.29688,0 c -2.27946,-9.45081 -8.92476,-9.09451 -11.875,0 l -2.29687,0 6.78125,-20.39062 2.90625,0 6.78125,20.39062" />
      <path
         inkscape:connector-curvature="0"
         id="path4446"
         d="m 442.80328,695.54321 -1.82812,0 0,-5.0625 -4.375,0 0,16.73438 3.28125,0 0,1.82812 -8.73438,0 0,-1.82812 3.29688,0 0,-16.73438 -4.375,0 0,5.0625 -1.82813,0 0,-6.89062 14.5625,0 0,6.89062" />
      <path
         sodipodi:nodetypes="ccccccccsccccccccscccsccc"
         inkscape:connector-curvature="0"
         id="path4448"
         d="m 460.49078,709.04321 -2.71875,0 -5.95312,-8.73437 -3.17188,0 0,8.73437 -2.14062,0 c 0,-3.39844 0,-7.16351 0,-10.56195 l 2.14062,-5.5e-4 4.57813,0 c 1.49999,10e-6 2.67707,-0.31249 3.53125,-0.9375 0.86457,-0.6354 1.29686,-1.65623 1.29687,-3.0625 m 0,0 c -10e-6,-1.3854 -0.4323,-2.39581 -1.29687,-3.03125 -0.85418,-0.64581 -2.03126,-0.96873 -3.53125,-0.96875 l -4.57813,0 -2.14062,-2.3e-4 0,-1.82789 6.71875,0 c 2.23957,2e-5 3.97395,0.4896 5.20312,1.46875 1.22916,0.96877 1.84374,2.42189 1.84375,4.35937 -10e-6,0.85418 -0.15105,1.62502 -0.45312,2.3125 -0.3021,0.6771 -0.71356,1.25522 -1.23438,1.73438 -0.52084,0.47917 -1.14584,0.86459 -1.875,1.15625 -0.71876,0.29167 -1.50521,0.46876 -2.35937,0.53125 l 6.14062,8.82812" />
      <path
         inkscape:connector-curvature="0"
         id="path4450"
         d="m 477.03766,709.04321 -13.03125,0 0,-20.39062 13.03125,0 0,1.82812 -10.89063,0 0,7.29688 8.03125,0 0,1.82812 -8.03125,0 0,7.60938 10.89063,0 0,1.82812" />
      <path
         inkscape:connector-curvature="0"
         id="path4452"
         d="m 494.53766,701.77759 c -2e-5,1.15625 -0.13022,2.20313 -0.39063,3.14062 -0.25001,0.93751 -0.64584,1.73959 -1.1875,2.40625 -0.53126,0.65625 -1.20834,1.16667 -2.03125,1.53125 -0.82292,0.36459 -1.79688,0.54688 -2.92187,0.54688 -1.13542,0 -2.11459,-0.18229 -2.9375,-0.54688 -0.8125,-0.36458 -1.48438,-0.875 -2.01563,-1.53125 -0.52083,-0.66666 -0.91146,-1.47395 -1.17187,-2.42187 -0.25,-0.94791 -0.375,-2 -0.375,-3.15625 l 0,-13.09375 2.14062,0 0,13.125 c 0,0.61459 0.0521,1.26563 0.15625,1.95312 0.11458,0.68751 0.32813,1.31251 0.64063,1.875 0.32291,0.56251 0.76562,1.03126 1.32812,1.40625 0.57291,0.375 1.31771,0.5625 2.23438,0.5625 0.91666,0 1.66145,-0.1875 2.23437,-0.5625 0.58333,-0.37499 1.03124,-0.84374 1.34375,-1.40625 0.32291,-0.56249 0.53645,-1.18749 0.64063,-1.875 0.10415,-0.68749 0.15624,-1.33853 0.15625,-1.95312 l 0,-13.125 2.15625,0 0,13.125" />
      <path
         inkscape:connector-curvature="0"
         id="path4454"
         d="m 512.28766,703.73071 c -2e-5,0.85417 -0.1771,1.63021 -0.53125,2.32813 -0.35418,0.6875 -0.82814,1.28125 -1.42188,1.78125 -0.59376,0.5 -1.27605,0.88541 -2.04687,1.15625 -0.77084,0.27083 -1.57293,0.40625 -2.40625,0.40625 -1.14584,0 -2.19792,-0.21354 -3.15625,-0.64063 -0.95834,-0.42708 -1.71875,-1.05729 -2.28125,-1.89062 l 0,2.17187 -1.8125,0 0,-6.20312 1.8125,0 c 0,0.69792 0.16145,1.33854 0.48437,1.92187 0.32292,0.57292 0.73438,1.06771 1.23438,1.48438 0.49999,0.41667 1.07291,0.74479 1.71875,0.98437 0.65624,0.22917 1.32291,0.34375 2,0.34375 0.60416,0 1.16145,-0.0833 1.67187,-0.25 0.51041,-0.17708 0.95833,-0.42187 1.34375,-0.73437 0.38541,-0.32292 0.68749,-0.71354 0.90625,-1.17188 0.22916,-0.45833 0.34374,-0.97916 0.34375,-1.5625 -10e-6,-0.65624 -0.14584,-1.21874 -0.4375,-1.6875 -0.28126,-0.46874 -0.66667,-0.86978 -1.15625,-1.20312 -0.47917,-0.33333 -1.02084,-0.61458 -1.625,-0.84375 -0.60417,-0.23958 -1.21875,-0.47395 -1.84375,-0.70313 -0.73959,-0.2604 -1.47917,-0.53124 -2.21875,-0.8125 -0.73958,-0.29165 -1.40104,-0.65624 -1.98437,-1.09375 -0.58334,-0.43749 -1.05729,-0.96873 -1.42188,-1.59375 -0.36458,-0.6354 -0.54687,-1.42186 -0.54687,-2.35937 0,-0.83332 0.17708,-1.5729 0.53125,-2.21875 0.35416,-0.65623 0.81771,-1.20832 1.39062,-1.65625 0.57292,-0.4479 1.23958,-0.78644 2,-1.01563 0.76042,-0.23956 1.54166,-0.35935 2.34375,-0.35937 0.98958,2e-5 1.90104,0.20314 2.73438,0.60937 0.84374,0.40627 1.49999,1.02606 1.96875,1.85938 l 0,-2.125 1.89062,0 0,5.82812 -1.89062,0 c -1e-5,-0.61457 -0.13022,-1.18748 -0.39063,-1.71875 -0.25001,-0.54165 -0.59376,-0.99998 -1.03125,-1.375 -0.43751,-0.3854 -0.93751,-0.68748 -1.5,-0.90625 -0.5625,-0.22914 -1.15625,-0.34373 -1.78125,-0.34375 -0.55209,2e-5 -1.07813,0.0625 -1.57812,0.1875 -0.50001,0.12502 -0.93751,0.32815 -1.3125,0.60938 -0.375,0.27085 -0.67709,0.62502 -0.90625,1.0625 -0.21875,0.43751 -0.32813,0.95835 -0.32813,1.5625 0,0.53126 0.13021,0.98439 0.39063,1.35937 0.27083,0.37502 0.6302,0.70835 1.07812,1 0.44792,0.28127 0.96354,0.54168 1.54688,0.78125 0.59374,0.22918 1.19791,0.46356 1.8125,0.70313 0.77082,0.27084 1.53645,0.57293 2.29687,0.90625 0.76041,0.33334 1.4427,0.73438 2.04688,1.20312 0.60415,0.46876 1.09894,1.04689 1.48437,1.73438 0.38541,0.67709 0.57811,1.50521 0.57813,2.48437" />
    </g>
  </g>
  <g
     style="display:inline"
     transform="translate(83.803983,-618.94697)"
     id="g5832"
     inkscape:groupmode="layer"
     inkscape:label="Plate">
    <flowRoot
       xml:space="preserve"
       id="flowRoot3361"
       style="font-size:8px;font-style:normal;font-weight:normal;line-height:125%;letter-spacing:0px;word-spacing:0px;fill:#000000;fill-opacity:1;stroke:none;font-family:Sans"><flowRegion
         id="flowRegion3363"><rect
           id="rect3365"
           width="22.008034"
           height="22.636833"
           x="112.55537"
           y="1278.5315" /></flowRegion><flowPara
         id="flowPara3367" /></flowRoot>    <flowRoot
       xml:space="preserve"
       id="flowRoot3685"
       style="font-size:8px;font-style:normal;font-weight:normal;line-height:125%;letter-spacing:0px;word-spacing:0px;fill:#000000;fill-opacity:1;stroke:none;font-family:Sans"
       transform="translate(0,-595.27583)"><flowRegion
         id="flowRegion3687"><rect
           id="rect3689"
           width="15.091223"
           height="16.348825"
           x="342.06772"
           y="1535.7112" /></flowRegion><flowPara
         id="flowPara3691" /></flowRoot>    <flowRoot
       xml:space="preserve"
       id="flowRoot3693"
       style="font-size:8px;font-style:normal;font-weight:normal;line-height:125%;letter-spacing:0px;word-spacing:0px;fill:#000000;fill-opacity:1;stroke:none;font-family:Sans"
       transform="translate(0,-595.27583)"><flowRegion
         id="flowRegion3695"><rect
           id="rect3697"
           width="15.720023"
           height="8.8032131"
           x="627.54333"
           y="1533.8247" /></flowRegion><flowPara
         id="flowPara3699">b</flowPara></flowRoot>    <flowRoot
       xml:space="preserve"
       id="flowRoot3733"
       style="font-size:8px;font-style:normal;font-weight:normal;line-height:125%;letter-spacing:0px;word-spacing:0px;fill:#000000;fill-opacity:1;stroke:none;font-family:Sans"
       transform="translate(0,-595.27583)"><flowRegion
         id="flowRegion3735"><rect
           id="rect3737"
           width="27.038441"
           height="16.348877"
           x="406.8342"
           y="1577.212" /></flowRegion><flowPara
         id="flowPara3739">commandcmd</flowPara><flowPara
         id="flowPara3757" /><flowPara
         id="flowPara3759" /></flowRoot>    <g
       id="g3951"
       transform="translate(-645.6019,-38.238125)">
      <path
         transform="translate(-298.54902,168.48295)"
         d="m 1111.8399,787.40748 0,-3.47399 m 2.88,3.474 -2.88,-1e-5 m 2.88,12.40197 0,-12.40196 m -2.88,12.40196 2.88,0 m -2.88,17.748 0,-17.748 m 2.88,17.748 -2.88,0 m 2.88,12.402 0,-12.402 m -2.88,12.402 2.88,0 m -2.88,3.474 0,-3.474 m -49.5001,3.474 49.5001,0 m -49.5001,-3.474 0,3.474 m -2.88,-3.474 2.88,0 m -2.8801,-12.402 10e-5,12.402 m 2.88,-12.402 -2.8801,0 m 2.88,-17.7479 10e-5,17.7479 m -2.8801,-17.7479 2.88,0 m -2.88,-12.40204 0,12.40204 m 2.88,-12.40207 -2.88,3e-5 m 2.8801,-3.47402 -10e-5,3.47399 m 49.5002,-3.47399 -49.5001,0"
         style="fill:none;stroke:#ff0000;stroke-width:1.00000131;display:inline"
         id="path4239-61"
         inkscape:connector-curvature="0" />
      <path
         transform="translate(-297.01245,168.06992)"
         d="m 976.91449,787.82051 0,-3.47399 m 2.88001,3.474 -2.88001,-10e-6 m 2.88001,12.40197 0,-12.40196 m -2.88001,12.40196 2.88001,0 m -2.88,17.748 -10e-6,-17.748 m 2.88002,17.748 -2.88001,0 m 2.88,12.402 10e-6,-12.402 m -2.88001,12.402 2.88,0 m -2.88002,3.474 2e-5,-3.474 m -49.50013,3.474 49.50011,0 m -49.5001,-3.474 -1e-5,3.474 m -2.88001,-3.474 2.88002,0 m -2.88003,-12.402 10e-6,12.402 m 2.88,-12.402 -2.88001,0 m 2.87999,-17.7479 2e-5,17.7479 m -2.88003,-17.7479 2.88001,0 m -2.88,-12.40204 -1e-5,12.40204 m 2.88002,-12.40207 -2.88001,3e-5 m 2.88003,-3.47402 -2e-5,3.47399 m 49.50014,-3.47399 -49.50012,0"
         style="fill:none;stroke:#ff0000;stroke-width:1.00000131;display:inline"
         id="path4239-5"
         inkscape:connector-curvature="0" />
      <path
         inkscape:connector-curvature="0"
         id="path4239-7-9"
         style="fill:none;stroke:#ff0000;stroke-width:1.00000131;display:inline"
         d="m 747.67043,955.89038 0,-3.47399 m 2.88001,3.474 -2.88001,-10e-6 m 2.88001,12.40197 0,-12.40196 m -2.88001,12.40196 2.88001,0 m -2.88,17.748 -10e-6,-17.748 m 2.88002,17.748 -2.88001,0 m 2.88,12.402 10e-6,-12.402 m -2.88001,12.402 2.88,0 m -2.88002,3.47405 2e-5,-3.47405 m -49.50013,3.47405 49.50011,0 m -49.5001,-3.47405 -10e-6,3.47405 m -2.88001,-3.47405 2.88002,0 m -2.88003,-12.402 10e-6,12.402 m 2.88,-12.402 -2.88001,0 m 2.87999,-17.7479 2e-5,17.7479 m -2.88003,-17.7479 2.88001,0 m -2.88,-12.40204 -1e-5,12.40204 m 2.88002,-12.40207 -2.88001,3e-5 m 2.88003,-3.47402 -2e-5,3.47399 m 49.50014,-3.47399 -49.50012,0" />
      <path
         inkscape:connector-curvature="0"
         id="path4239-7-3"
         style="fill:none;stroke:#ff0000;stroke-width:1.00000131;display:inline"
         d="m 815.2541,1015.4706 0,-3.474 m 2.88001,3.474 -2.88001,0 m 2.88001,12.402 0,-12.402 m -2.88001,12.402 2.88001,0 m -2.88,17.748 -10e-6,-17.748 m 2.88002,17.748 -2.88001,0 m 2.88,12.402 1e-5,-12.402 m -2.88001,12.402 2.88,0 m -2.88002,3.474 2e-5,-3.474 m -49.50013,3.474 49.50011,0 m -49.5001,-3.474 -1e-5,3.474 m -2.88001,-3.474 2.88002,0 m -2.88003,-12.402 10e-6,12.402 m 2.88,-12.402 -2.88001,0 m 2.87999,-17.7479 2e-5,17.7479 m -2.88003,-17.7479 2.88001,0 m -2.88,-12.402 -1e-5,12.402 m 2.88002,-12.4021 -2.88001,10e-5 m 2.88003,-3.4741 -2e-5,3.474 m 49.50014,-3.474 -49.50012,0" />
      <path
         inkscape:connector-curvature="0"
         id="path4239-7-6"
         style="fill:none;stroke:#ff0000;stroke-width:1.00000131;display:inline"
         d="m 748.55968,1015.4707 0,-3.474 m 2.88001,3.474 -2.88001,0 m 2.88001,12.4019 0,-12.4019 m -2.88001,12.4019 2.88001,0 m -2.88,17.748 -1e-5,-17.748 m 2.88002,17.748 -2.88001,0 m 2.88,12.402 10e-6,-12.402 m -2.88001,12.402 2.88,0 m -2.88002,3.474 2e-5,-3.474 m -49.50013,3.474 49.50011,0 m -49.5001,-3.474 -10e-6,3.474 m -2.88001,-3.474 2.88002,0 m -2.88003,-12.402 10e-6,12.402 m 2.88,-12.402 -2.88001,0 m 2.87999,-17.7479 2e-5,17.7479 m -2.88003,-17.7479 2.88001,0 m -2.88,-12.402 -10e-6,12.402 m 2.88002,-12.402 -2.88001,0 m 2.88003,-3.474 -2e-5,3.474 m 49.50014,-3.474 -49.50012,0" />
      <path
         inkscape:connector-curvature="0"
         id="path4239-7-94"
         style="fill:none;stroke:#ff0000;stroke-width:1.00000131;display:inline"
         d="m 682.75454,1016.36 0,-3.474 m 2.88001,3.474 -2.88001,0 m 2.88001,12.402 0,-12.402 m -2.88001,12.402 2.88001,0 m -2.88,17.748 -10e-6,-17.748 m 2.88002,17.748 -2.88001,0 m 2.88,12.402 10e-6,-12.402 m -2.88001,12.402 2.88,0 m -2.88002,3.474 2e-5,-3.474 m -49.50013,3.474 49.50011,0 m -49.5001,-3.474 -10e-6,3.474 m -2.88001,-3.474 2.88002,0 m -2.88003,-12.402 10e-6,12.402 m 2.88,-12.402 -2.88001,0 m 2.87999,-17.7479 2e-5,17.7479 m -2.88003,-17.7479 2.88001,0 m -2.88,-12.402 -10e-6,12.402 m 2.88002,-12.4021 -2.88001,10e-5 m 2.88003,-3.4741 -2e-5,3.474 m 49.50014,-3.474 -49.50012,0" />
    </g>
    <path
       d="m 166.00282,797.60235 0,-3.47399 m 2.88,3.474 -2.88,-10e-6 m 2.88,12.40197 0,-12.40196 m -2.88,12.40196 2.88,0 m -2.88,17.748 0,-17.748 m 2.88,17.748 -2.88,0 m 2.88,12.402 0,-12.402 m -2.88,12.402 2.88,0 m -2.88,3.474 0,-3.474 m -49.5001,3.474 49.5001,0 m -49.5001,-3.474 0,3.474 m -2.88,-3.474 2.88,0 m -2.8801,-12.402 1e-4,12.402 m 2.88,-12.402 -2.8801,0 m 2.88,-17.7479 1e-4,17.7479 m -2.8801,-17.7479 2.88,0 m -2.88,-12.40204 0,12.40204 m 2.88,-12.40207 -2.88,3e-5 m 2.8801,-3.47402 -1e-4,3.47399 m 49.5002,-3.47399 -49.5001,0"
       style="fill:none;stroke:#ff0000;stroke-width:1.00000131;display:inline"
       id="path4239-61-4"
       inkscape:connector-curvature="0" />
    <path
       d="m 32.61398,797.60235 0,-3.47399 m 2.88001,3.474 -2.88001,-10e-6 m 2.88001,12.40197 0,-12.40196 m -2.88001,12.40196 2.88001,0 m -2.88,17.748 -1e-5,-17.748 m 2.88002,17.748 -2.88001,0 m 2.88,12.402 1e-5,-12.402 m -2.88001,12.402 2.88,0 m -2.88002,3.474 2e-5,-3.474 m -49.50013,3.474 49.50011,0 m -49.5001,-3.474 -10e-6,3.474 m -2.88001,-3.474 2.88002,0 m -2.88003,-12.402 10e-6,12.402 m 2.88,-12.402 -2.88001,0 m 2.87999,-17.7479 2e-5,17.7479 m -2.88003,-17.7479 2.88001,0 m -2.88,-12.40204 -10e-6,12.40204 m 2.88002,-12.40207 -2.88001,3e-5 m 2.88003,-3.47402 -2e-5,3.47399 m 49.50014,-3.47399 -49.50012,0"
       style="fill:none;stroke:#ff0000;stroke-width:1.00000131;display:inline"
       id="path4239-5-3"
       inkscape:connector-curvature="0" />
    <path
       inkscape:connector-curvature="0"
       id="path4239-7-9-8"
       style="fill:none;stroke:#ff0000;stroke-width:1.00000131;display:inline"
       d="m 100.38237,797.6023 0,-3.47399 m 2.88001,3.474 -2.88001,-10e-6 m 2.88001,12.40197 0,-12.40196 m -2.88001,12.40196 2.88001,0 m -2.88,17.748 -1e-5,-17.748 m 2.88002,17.748 -2.88001,0 m 2.88,12.402 1e-5,-12.402 m -2.88001,12.402 2.88,0 m -2.88002,3.47405 2e-5,-3.47405 m -49.50013,3.47405 49.50011,0 m -49.5001,-3.47405 -1e-5,3.47405 m -2.88001,-3.47405 2.88002,0 m -2.88003,-12.402 1e-5,12.402 m 2.88,-12.402 -2.88001,0 m 2.87999,-17.7479 2e-5,17.7479 m -2.88003,-17.7479 2.88001,0 m -2.88,-12.40204 -1e-5,12.40204 m 2.88002,-12.40207 -2.88001,3e-5 m 2.88003,-3.47402 -2e-5,3.47399 m 49.50014,-3.47399 -49.50012,0" />
    <path
       inkscape:connector-curvature="0"
       id="path4239-7-3-4"
       style="fill:none;stroke:#ff0000;stroke-width:1.00000131;display:inline"
       d="m 167.96604,857.18252 0,-3.474 m 2.88001,3.474 -2.88001,0 m 2.88001,12.402 0,-12.402 m -2.88001,12.402 2.88001,0 m -2.88,17.748 -1e-5,-17.748 m 2.88002,17.748 -2.88001,0 m 2.88,12.402 1e-5,-12.402 m -2.88001,12.402 2.88,0 m -2.88002,3.474 2e-5,-3.474 m -49.50013,3.474 49.50011,0 m -49.5001,-3.474 -1e-5,3.474 m -2.88001,-3.474 2.88002,0 m -2.88003,-12.402 1e-5,12.402 m 2.88,-12.402 -2.88001,0 m 2.87999,-17.7479 2e-5,17.7479 m -2.88003,-17.7479 2.88001,0 m -2.88,-12.402 -1e-5,12.402 m 2.88002,-12.4021 -2.88001,1e-4 m 2.88003,-3.4741 -2e-5,3.474 m 49.50014,-3.474 -49.50012,0" />
    <path
       inkscape:connector-curvature="0"
       id="path4239-7-6-0"
       style="fill:none;stroke:#ff0000;stroke-width:1.00000131;display:inline"
       d="m 101.27162,857.18262 0,-3.474 m 2.88001,3.474 -2.88001,0 m 2.88001,12.4019 0,-12.4019 m -2.88001,12.4019 2.88001,0 m -2.88,17.748 -1e-5,-17.748 m 2.88002,17.748 -2.88001,0 m 2.88,12.402 1e-5,-12.402 m -2.88001,12.402 2.88,0 m -2.88002,3.474 2e-5,-3.474 m -49.50013,3.474 49.50011,0 m -49.5001,-3.474 -10e-6,3.474 m -2.88001,-3.474 2.88002,0 m -2.88003,-12.402 10e-6,12.402 m 2.88,-12.402 -2.88001,0 m 2.87999,-17.7479 2e-5,17.7479 m -2.88003,-17.7479 2.88001,0 m -2.88,-12.402 -10e-6,12.402 m 2.88002,-12.402 -2.88001,0 m 2.88003,-3.474 -2e-5,3.474 m 49.50014,-3.474 -49.50012,0" />
    <path
       inkscape:connector-curvature="0"
       id="path4239-7-94-0"
       style="fill:none;stroke:#ff0000;stroke-width:1.00000131;display:inline"
       d="m 35.46648,858.07192 0,-3.474 m 2.88001,3.474 -2.88001,0 m 2.88001,12.402 0,-12.402 m -2.88001,12.402 2.88001,0 m -2.88,17.748 -1e-5,-17.748 m 2.88002,17.748 -2.88001,0 m 2.88,12.402 10e-6,-12.402 m -2.88001,12.402 2.88,0 m -2.88002,3.474 2e-5,-3.474 m -49.50013,3.474 49.50011,0 m -49.5001,-3.474 -10e-6,3.474 m -2.88001,-3.474 2.88002,0 m -2.88003,-12.402 10e-6,12.402 m 2.88,-12.402 -2.88001,0 m 2.87999,-17.7479 2e-5,17.7479 m -2.88003,-17.7479 2.88001,0 m -2.88,-12.402 -10e-6,12.402 m 2.88002,-12.4021 -2.88001,10e-5 m 2.88003,-3.4741 -2e-5,3.474 m 49.50014,-3.474 -49.50012,0" />
    <path
       d="m 164.2243,679.33093 0,-3.47399 m 2.88,3.474 -2.88,-1e-5 m 2.88,12.40197 0,-12.40196 m -2.88,12.40196 2.88,0 m -2.88,17.748 0,-17.748 m 2.88,17.748 -2.88,0 m 2.88,12.402 0,-12.402 m -2.88,12.402 2.88,0 m -2.88,3.474 0,-3.474 m -49.5001,3.474 49.5001,0 m -49.5001,-3.474 0,3.474 m -2.88,-3.474 2.88,0 m -2.8801,-12.402 1e-4,12.402 m 2.88,-12.402 -2.8801,0 m 2.88,-17.7479 10e-5,17.7479 m -2.8801,-17.7479 2.88,0 m -2.88,-12.40204 0,12.40204 m 2.88,-12.40207 -2.88,3e-5 m 2.8801,-3.47402 -10e-5,3.47399 m 49.5002,-3.47399 -49.5001,0"
       style="fill:none;stroke:#ff0000;stroke-width:1.00000131;display:inline"
       id="path4239-61-9"
       inkscape:connector-curvature="0" />
    <path
       d="m 30.83546,679.33093 0,-3.47399 m 2.88001,3.474 -2.88001,-1e-5 m 2.88001,12.40197 0,-12.40196 m -2.88001,12.40196 2.88001,0 m -2.88,17.748 -10e-6,-17.748 m 2.88002,17.748 -2.88001,0 m 2.88,12.402 10e-6,-12.402 m -2.88001,12.402 2.88,0 m -2.88002,3.474 2e-5,-3.474 m -49.50013,3.474 49.50011,0 m -49.5001,-3.474 -10e-6,3.474 m -2.88001,-3.474 2.88002,0 m -2.88003,-12.402 10e-6,12.402 m 2.88,-12.402 -2.88001,0 m 2.87999,-17.7479 2e-5,17.7479 m -2.88003,-17.7479 2.88001,0 m -2.88,-12.40204 -10e-6,12.40204 m 2.88002,-12.40207 -2.88001,3e-5 m 2.88003,-3.47402 -2e-5,3.47399 m 49.50014,-3.47399 -49.50012,0"
       style="fill:none;stroke:#ff0000;stroke-width:1.00000131;display:inline"
       id="path4239-5-7"
       inkscape:connector-curvature="0" />
    <path
       inkscape:connector-curvature="0"
       id="path4239-7-9-5"
       style="fill:none;stroke:#ff0000;stroke-width:1.00000131;display:inline"
       d="m 98.603851,679.33088 0,-3.47399 m 2.880009,3.474 -2.880009,-10e-6 m 2.880009,12.40197 0,-12.40196 m -2.880009,12.40196 2.880009,0 m -2.879999,17.748 -10e-6,-17.748 m 2.880019,17.748 -2.880009,0 m 2.879999,12.402 10e-6,-12.402 m -2.880009,12.402 2.879999,0 m -2.880019,3.47405 2e-5,-3.47405 m -49.500131,3.47405 49.500111,0 m -49.500101,-3.47405 -1e-5,3.47405 m -2.88001,-3.47405 2.88002,0 m -2.88003,-12.402 1e-5,12.402 m 2.88,-12.402 -2.88001,0 m 2.87999,-17.7479 2e-5,17.7479 m -2.88003,-17.7479 2.88001,0 m -2.88,-12.40204 -1e-5,12.40204 m 2.88002,-12.40207 -2.88001,3e-5 m 2.88003,-3.47402 -2e-5,3.47399 m 49.500141,-3.47399 -49.500121,0" />
    <path
       inkscape:connector-curvature="0"
       id="path4239-7-3-6"
       style="fill:none;stroke:#ff0000;stroke-width:1.00000131;display:inline"
       d="m 166.18752,738.9111 0,-3.474 m 2.88001,3.474 -2.88001,0 m 2.88001,12.402 0,-12.402 m -2.88001,12.402 2.88001,0 m -2.88,17.748 -1e-5,-17.748 m 2.88002,17.748 -2.88001,0 m 2.88,12.402 1e-5,-12.402 m -2.88001,12.402 2.88,0 m -2.88002,3.474 2e-5,-3.474 m -49.50013,3.474 49.50011,0 m -49.5001,-3.474 -1e-5,3.474 m -2.88001,-3.474 2.88002,0 m -2.88003,-12.402 1e-5,12.402 m 2.88,-12.402 -2.88001,0 m 2.87999,-17.7479 2e-5,17.7479 m -2.88003,-17.7479 2.88001,0 m -2.88,-12.402 -1e-5,12.402 m 2.88002,-12.4021 -2.88001,10e-5 m 2.88003,-3.4741 -2e-5,3.474 m 49.50014,-3.474 -49.50012,0" />
    <path
       inkscape:connector-curvature="0"
       id="path4239-7-6-5"
       style="fill:none;stroke:#ff0000;stroke-width:1.00000131;display:inline"
       d="m 99.493101,738.9112 0,-3.474 m 2.880009,3.474 -2.880009,0 m 2.880009,12.4019 0,-12.4019 m -2.880009,12.4019 2.880009,0 m -2.879999,17.748 -1e-5,-17.748 m 2.880019,17.748 -2.880009,0 m 2.879999,12.402 1e-5,-12.402 m -2.880009,12.402 2.879999,0 m -2.880019,3.474 2e-5,-3.474 m -49.500131,3.474 49.500111,0 m -49.500101,-3.474 -10e-6,3.474 m -2.88001,-3.474 2.88002,0 m -2.88003,-12.402 10e-6,12.402 m 2.88,-12.402 -2.88001,0 m 2.87999,-17.7479 2e-5,17.7479 m -2.88003,-17.7479 2.88001,0 m -2.88,-12.402 -10e-6,12.402 m 2.88002,-12.402 -2.88001,0 m 2.88003,-3.474 -2e-5,3.474 m 49.500141,-3.474 -49.500121,0" />
    <path
       inkscape:connector-curvature="0"
       id="path4239-7-94-3"
       style="fill:none;stroke:#ff0000;stroke-width:1.00000131;display:inline"
       d="m 33.68796,739.8005 0,-3.474 m 2.88001,3.474 -2.88001,0 m 2.88001,12.402 0,-12.402 m -2.88001,12.402 2.88001,0 m -2.88,17.748 -1e-5,-17.748 m 2.88002,17.748 -2.88001,0 m 2.88,12.402 10e-6,-12.402 m -2.88001,12.402 2.88,0 m -2.88002,3.474 2e-5,-3.474 m -49.50013,3.474 49.50011,0 m -49.5001,-3.474 -10e-6,3.474 m -2.88001,-3.474 2.88002,0 m -2.88003,-12.402 10e-6,12.402 m 2.88,-12.402 -2.88001,0 m 2.87999,-17.7479 2e-5,17.7479 m -2.88003,-17.7479 2.88001,0 m -2.88,-12.402 -10e-6,12.402 m 2.88002,-12.4021 -2.88001,10e-5 m 2.88003,-3.4741 -2e-5,3.474 m 49.50014,-3.474 -49.50012,0" />
    <flowRoot
       xml:space="preserve"
       id="flowRoot6846"
       style="font-size:8px;font-style:normal;font-weight:normal;line-height:125%;letter-spacing:0px;word-spacing:0px;fill:#000000;fill-opacity:1;stroke:none;font-family:Sans"
       transform="translate(-83.803983,618.94697)"><flowRegion
         id="flowRegion6848"><rect
           id="rect6850"
           width="32.013317"
           height="24.009989"
           x="85.368843"
           y="375.85254" /></flowRegion><flowPara
         id="flowPara6852">&lt;</flowPara></flowRoot>    <flowRoot
       xml:space="preserve"
       id="flowRoot6854"
       style="font-size:8px;font-style:normal;font-weight:normal;line-height:125%;letter-spacing:0px;word-spacing:0px;fill:#000000;fill-opacity:1;stroke:none;font-family:Sans"
       transform="translate(-83.803983,618.94697)"><flowRegion
         id="flowRegion6856"><rect
           id="rect6858"
           width="22.23147"
           height="24.899246"
           x="220.53619"
           y="374.96329" /></flowRegion><flowPara
         id="flowPara6860">&gt;</flowPara></flowRoot>    <flowRoot
       xml:space="preserve"
       id="flowRoot6862"
       style="font-size:8px;font-style:normal;font-weight:normal;line-height:125%;letter-spacing:0px;word-spacing:0px;fill:#000000;fill-opacity:1;stroke:none;font-family:Sans"
       transform="translate(-83.803983,618.94697)"><flowRegion
         id="flowRegion6864"><rect
           id="rect6866"
           width="22.23147"
           height="21.342211"
           x="152.06326"
           y="311.8259" /></flowRegion><flowPara
         id="flowPara6868">^</flowPara></flowRoot>    <flowRoot
       xml:space="preserve"
       id="flowRoot6870"
       style="font-size:8px;font-style:normal;font-weight:normal;line-height:125%;letter-spacing:0px;word-spacing:0px;fill:#000000;fill-opacity:1;stroke:none;font-family:Sans"
       transform="translate(-83.803983,618.94697)"><flowRegion
         id="flowRegion6872"><rect
           id="rect6874"
           width="22.23147"
           height="23.120729"
           x="153.84178"
           y="250.46704" /></flowRegion><flowPara
         id="flowPara6876">0</flowPara></flowRoot>    <flowRoot
       xml:space="preserve"
       id="flowRoot6878"
       style="font-size:8px;font-style:normal;font-weight:normal;line-height:125%;letter-spacing:0px;word-spacing:0px;fill:#000000;fill-opacity:1;stroke:none;font-family:Sans"
       transform="translate(-83.803983,618.94697)"><flowRegion
         id="flowRegion6880"><rect
           id="rect6882"
           width="23.120729"
           height="18.674435"
           x="81.811813"
           y="190.8867" /></flowRegion><flowPara
         id="flowPara6884">1</flowPara></flowRoot>    <flowRoot
       xml:space="preserve"
       id="flowRoot6886"
       style="font-size:8px;font-style:normal;font-weight:normal;line-height:125%;letter-spacing:0px;word-spacing:0px;fill:#000000;fill-opacity:1;stroke:none;font-family:Sans"
       transform="translate(-83.803983,618.94697)"><flowRegion
         id="flowRegion6888"><rect
           id="rect6890"
           width="20.452953"
           height="17.785177"
           x="144.94919"
           y="189.99744" /></flowRegion><flowPara
         id="flowPara6892">2</flowPara></flowRoot>    <flowRoot
       xml:space="preserve"
       id="flowRoot6894"
       style="font-size:8px;font-style:normal;font-weight:normal;line-height:125%;letter-spacing:0px;word-spacing:0px;fill:#000000;fill-opacity:1;stroke:none;font-family:Sans"
       transform="translate(-83.803983,618.94697)"><flowRegion
         id="flowRegion6896"><rect
           id="rect6898"
           width="26.677765"
           height="20.452953"
           x="214.31137"
           y="193.55447" /></flowRegion><flowPara
         id="flowPara6900">3</flowPara></flowRoot>    <flowRoot
       xml:space="preserve"
       id="flowRoot6902"
       style="font-size:8px;font-style:normal;font-weight:normal;line-height:125%;letter-spacing:0px;word-spacing:0px;fill:#000000;fill-opacity:1;stroke:none;font-family:Sans"
       transform="translate(-83.803983,618.94697)"><flowRegion
         id="flowRegion6904"><rect
           id="rect6906"
           width="21.342211"
           height="17.785177"
           x="81.811813"
           y="133.97414" /></flowRegion><flowPara
         id="flowPara6908">4</flowPara></flowRoot>    <flowRoot
       xml:space="preserve"
       id="flowRoot6910"
       style="font-size:8px;font-style:normal;font-weight:normal;line-height:125%;letter-spacing:0px;word-spacing:0px;fill:#000000;fill-opacity:1;stroke:none;font-family:Sans"
       transform="translate(-83.803983,618.94697)"><flowRegion
         id="flowRegion6912"><rect
           id="rect6914"
           width="21.342211"
           height="20.452953"
           x="146.72771"
           y="133.97414" /></flowRegion><flowPara
         id="flowPara6916">5</flowPara></flowRoot>    <flowRoot
       xml:space="preserve"
       id="flowRoot6918"
       style="font-size:8px;font-style:normal;font-weight:normal;line-height:125%;letter-spacing:0px;word-spacing:0px;fill:#000000;fill-opacity:1;stroke:none;font-family:Sans"
       transform="translate(-83.803983,618.94697)"><flowRegion
         id="flowRegion6920"><rect
           id="rect6922"
           width="18.674435"
           height="20.452953"
           x="216.97916"
           y="132.19562" /></flowRegion><flowPara
         id="flowPara6924">6</flowPara></flowRoot>    <flowRoot
       xml:space="preserve"
       id="flowRoot6926"
       style="font-size:8px;font-style:normal;font-weight:normal;line-height:125%;letter-spacing:0px;word-spacing:0px;fill:#000000;fill-opacity:1;stroke:none;font-family:Sans"
       transform="translate(-83.803983,618.94697)"><flowRegion
         id="flowRegion6928"><rect
           id="rect6930"
           width="19.563694"
           height="21.342211"
           x="81.811813"
           y="72.61528" /></flowRegion><flowPara
         id="flowPara6932">7</flowPara></flowRoot>    <flowRoot
       xml:space="preserve"
       id="flowRoot6934"
       style="font-size:8px;font-style:normal;font-weight:normal;line-height:125%;letter-spacing:0px;word-spacing:0px;fill:#000000;fill-opacity:1;stroke:none;font-family:Sans"
       transform="translate(-83.803983,618.94697)"><flowRegion
         id="flowRegion6936"><rect
           id="rect6938"
           width="23.120729"
           height="22.23147"
           x="145.83844"
           y="70.836761" /></flowRegion><flowPara
         id="flowPara6940">8</flowPara></flowRoot>    <flowRoot
       xml:space="preserve"
       id="flowRoot6942"
       style="font-size:8px;font-style:normal;font-weight:normal;line-height:125%;letter-spacing:0px;word-spacing:0px;fill:#000000;fill-opacity:1;stroke:none;font-family:Sans"
       transform="translate(-83.803983,618.94697)"><flowRegion
         id="flowRegion6944"><rect
           id="rect6946"
           width="24.899246"
           height="20.452953"
           x="212.53285"
           y="69.947502" /></flowRegion><flowPara
         id="flowPara6948">9</flowPara></flowRoot>    <flowRoot
       xml:space="preserve"
       id="flowRoot6950"
       style="font-size:8px;font-style:normal;font-weight:normal;line-height:125%;letter-spacing:0px;word-spacing:0px;fill:#000000;fill-opacity:1;stroke:none;font-family:Sans"
       transform="translate(-83.803983,618.94697)"><flowRegion
         id="flowRegion6952"><rect
           id="rect6954"
           width="23.120729"
           height="23.120729"
           x="83.590332"
           y="252.24556" /></flowRegion><flowPara
         id="flowPara6956">F1</flowPara></flowRoot>    <flowRoot
       xml:space="preserve"
       id="flowRoot6958"
       style="font-size:8px;font-style:normal;font-weight:normal;line-height:125%;letter-spacing:0px;word-spacing:0px;fill:#000000;fill-opacity:1;stroke:none;font-family:Sans"
       transform="translate(-83.803983,618.94697)"><flowRegion
         id="flowRegion6960"><rect
           id="rect6962"
           width="25.788506"
           height="21.342211"
           x="217.86841"
           y="254.02408" /></flowRegion><flowPara
         id="flowPara6964">F12</flowPara><flowPara
         id="flowPara6974">F4</flowPara></flowRoot>    <flowRoot
       xml:space="preserve"
       id="flowRoot6966"
       style="font-size:8px;font-style:normal;font-weight:normal;line-height:125%;letter-spacing:0px;word-spacing:0px;fill:#000000;fill-opacity:1;stroke:none;font-family:Sans"
       transform="translate(-83.803983,618.94697)"><flowRegion
         id="flowRegion6968"><rect
           id="rect6970"
           width="16.895918"
           height="10.671105"
           x="81.811813"
           y="267.36295" /></flowRegion><flowPara
         id="flowPara6972">F2</flowPara></flowRoot>    <flowRoot
       xml:space="preserve"
       id="flowRoot6976"
       style="font-size:8px;font-style:normal;font-weight:normal;line-height:125%;letter-spacing:0px;word-spacing:0px;fill:#000000;fill-opacity:1;stroke:none;font-family:Sans"
       transform="translate(-83.803983,618.94697)"><flowRegion
         id="flowRegion6978"><rect
           id="rect6980"
           width="27.567024"
           height="20.452953"
           x="80.922554"
           y="310.93665" /></flowRegion><flowPara
         id="flowPara6982">Home</flowPara></flowRoot>    <flowRoot
       xml:space="preserve"
       id="flowRoot6984"
       style="font-size:8px;font-style:normal;font-weight:normal;line-height:125%;letter-spacing:0px;word-spacing:0px;fill:#000000;fill-opacity:1;stroke:none;font-family:Sans"
       transform="translate(-83.803983,618.94697)"><flowRegion
         id="flowRegion6986"><rect
           id="rect6988"
           width="29.345541"
           height="19.563694"
           x="209.86508"
           y="309.15811" /></flowRegion><flowPara
         id="flowPara6990">End</flowPara></flowRoot>  </g>
  <g
     style="display:inline"
     transform="translate(83.803983,-618.94697)"
     id="g5730"
     inkscape:groupmode="layer"
     inkscape:label="Spacer" />
  <g
     style="display:inline"
     transform="translate(83.803983,-618.94697)"
     id="g5628"
     inkscape:groupmode="layer"
     inkscape:label="Bottom">
    <g
       id="g5918"
       transform="matrix(0.34802434,0,0,1.5505338,293.09401,-353.12398)">
      <g
         id="g6813"
         transform="translate(7.6654882,-17.779054)">
        <path
           inkscape:connector-curvature="0"
           id="rect6008"
           d="m 3.3125,672.8125 a 0.48239945,0.48239945 0 0 0 -0.34375,0.46875 l 0,242.03125 a 0.48239945,0.48239945 0 0 0 0.5,0.46875 l 649,0 a 0.48239945,0.48239945 0 0 0 0.46875,-0.46875 l 0,-242.03125 a 0.48239945,0.48239945 0 0 0 -0.46875,-0.46875 l -649,0 a 0.48239945,0.48239945 0 0 0 -0.15625,0 z m 0.625,0.96875 648.0625,0 0,241.03125 -648.0625,0 0,-241.03125 z"
           style="font-size:medium;font-style:normal;font-variant:normal;font-weight:normal;font-stretch:normal;text-indent:0;text-align:start;text-decoration:none;line-height:normal;letter-spacing:normal;word-spacing:normal;text-transform:none;direction:ltr;block-progression:tb;writing-mode:lr-tb;text-anchor:start;baseline-shift:baseline;color:#000000;fill:#000000;fill-opacity:1;stroke:none;stroke-width:0.96470243;marker:none;visibility:visible;display:inline;overflow:visible;enable-background:accumulate;font-family:Sans;-inkscape-font-specification:Sans" />
        <path
           inkscape:connector-curvature="0"
           id="rect6008-2"
           d="m -129.39778,644.71348 a 0.68910844,0.58943302 0 0 0 -0.49097,0.57276 l 0,295.73252 a 0.68910844,0.58943302 0 0 0 0.71424,0.57276 l 927.09759,0 a 0.68910844,0.58943302 0 0 0 0.66962,-0.57276 l 0,-295.73252 a 0.68910844,0.58943302 0 0 0 -0.66962,-0.57276 l -927.09759,0 a 0.68910844,0.58943302 0 0 0 -0.22327,0 z m 0.89282,1.18369 925.75845,0 0,294.51065 -925.75845,0 0,-294.51065 z"
           style="font-size:medium;font-style:normal;font-variant:normal;font-weight:normal;font-stretch:normal;text-indent:0;text-align:start;text-decoration:none;line-height:normal;letter-spacing:normal;word-spacing:normal;text-transform:none;direction:ltr;block-progression:tb;writing-mode:lr-tb;text-anchor:start;baseline-shift:baseline;color:#000000;fill:#000000;fill-opacity:1;stroke:none;stroke-width:0.96470243;marker:none;visibility:visible;display:inline;overflow:visible;enable-background:accumulate;font-family:Sans;-inkscape-font-specification:Sans" />
      </g>
      <path
         style="font-size:medium;font-style:normal;font-variant:normal;font-weight:normal;font-stretch:normal;text-indent:0;text-align:start;text-decoration:none;line-height:normal;letter-spacing:normal;word-spacing:normal;text-transform:none;direction:ltr;block-progression:tb;writing-mode:lr-tb;text-anchor:start;baseline-shift:baseline;color:#000000;fill:#000000;fill-opacity:1;stroke:none;stroke-width:0.96470243;marker:none;visibility:visible;display:inline;overflow:visible;enable-background:accumulate;font-family:Sans;-inkscape-font-specification:Sans"
         d="m 839.00766,627.50801 a 0.68721203,0.58829419 0 0 0 -0.48977,0.57164 l 0,295.16115 a 0.68721203,0.58829419 0 0 0 0.7123,0.57164 l 924.54621,0 a 0.68721203,0.58829419 0 0 0 0.6678,-0.57164 l 0,-295.16115 a 0.68721203,0.58829419 0 0 0 -0.6678,-0.57164 l -924.54621,0 a 0.68721203,0.58829419 0 0 0 -0.22253,0 z m 0.89036,1.1814 923.21068,0 0,293.94164 -923.21068,0 0,-293.94164 z"
         id="rect6008-9"
         inkscape:connector-curvature="0" />
      <path
         style="font-size:medium;font-style:normal;font-variant:normal;font-weight:normal;font-stretch:normal;text-indent:0;text-align:start;text-decoration:none;line-height:normal;letter-spacing:normal;word-spacing:normal;text-transform:none;direction:ltr;block-progression:tb;writing-mode:lr-tb;text-anchor:start;baseline-shift:baseline;color:#000000;fill:#000000;fill-opacity:1;stroke:none;stroke-width:0.96470243;marker:none;visibility:visible;display:inline;overflow:visible;enable-background:accumulate;font-family:Sans;-inkscape-font-specification:Sans"
         d="m -1082.4746,627.22126 a 0.68721202,0.58829419 0 0 0 -0.4898,0.57164 l 0,295.16115 a 0.68721202,0.58829419 0 0 0 0.7123,0.57164 l 924.54616,0 a 0.68721202,0.58829419 0 0 0 0.66779,-0.57164 l 0,-295.16115 a 0.68721202,0.58829419 0 0 0 -0.66779,-0.57164 l -924.54616,0 a 0.68721202,0.58829419 0 0 0 -0.2225,0 z m 0.8903,1.1814 923.21064,0 0,293.94163 -923.21064,0 0,-293.94163 z"
         id="rect6008-9-5"
         inkscape:connector-curvature="0" />
    </g>
  </g>
  <g
     style="display:inline"
     transform="translate(83.803983,-618.94697)"
     id="g3114"
     inkscape:groupmode="layer"
     inkscape:label="Top" />
</svg>
